<svg xmlns="http://www.w3.org/2000/svg" width="830" height="440" viewBox="0 0 830 440">
    <g fill="none" fill-rule="evenodd">
        <g>
            <path fill="#9BA9BB" d="M0 3c0-1.657 1.346-3 3.005-3h823.99C828.655 0 830 1.341 830 3v437H0V3z" opacity=".2"/>
            <g fill="#B7C2D0" transform="translate(268 144)">
                <path d="M70.511 63.798l50.638 48.736L191.42 6.052c1.217-1.843 3.698-2.352 5.542-1.135.45.297.835.682 1.132 1.131l91.8 138.745c1.218 1.842.713 4.324-1.13 5.543-.654.433-1.422.664-2.207.664H9.817c-2.21 0-4-1.79-4-4 0-.84.263-1.658.755-2.34l57.921-80.32c1.292-1.791 3.792-2.196 5.584-.904.153.11.298.231.434.362z"/>
                <circle cx="115.5" cy="34.5" r="19.5"/>
            </g>
        </g>
    </g>
</svg>
