<svg xmlns="http://www.w3.org/2000/svg" width="203" height="198" viewBox="0 0 203 198">
    <g fill="none" fill-rule="evenodd">
        <g fill-rule="nonzero">
            <path fill="#F8F9FA" stroke="#ECEFF2" d="M168.06 20.87c.441 0 .841.18 1.131.467.29.288.47.685.47 1.123h0v153.173c0 .618-.251 1.177-.656 1.582-.404.405-.963.656-1.58.656h0-142.53c-.616 0-1.175-.25-1.58-.655-.404-.405-.655-.965-.655-1.583h0V22.46c0-.439.18-.836.469-1.124.29-.288.69-.465 1.133-.465h143.797z" transform="rotate(-18 96.16 99.37)"/>
            <g transform="translate(26 14)">
                <path fill="#FFF" stroke="#ECEFF2" d="M145.399 0c.442 0 .842.18 1.132.47.29.29.469.689.469 1.13h0v154.148c0 .622-.25 1.185-.655 1.592-.405.408-.964.66-1.58.66h0H2.235c-.617 0-1.175-.252-1.58-.66-.405-.407-.655-.97-.655-1.592h0V1.6C0 1.158.179.758.468.47.758.178 1.158 0 1.601 0H145.4z"/>
                <rect width="23.511" height="3.301" x="7.837" y="87.471" fill="#E6EAEF" rx="1.65"/>
                <rect width="42.071" height="7.427" x="7.837" y="98.611" fill="#9BA9BB" rx="3.713"/>
                <rect width="117.552" height="6.602" x="7.837" y="113.737" fill="#E6EAEF" rx="3.301"/>
                <rect width="50.733" height="6.602" x="7.837" y="140.406" fill="#E6EAEF" rx="3.301"/>
                <rect width="59.395" height="6.602" x="7.837" y="127.071" fill="#E6EAEF" rx="3.301"/>
                <rect width="40.009" height="6.602" x="68.882" y="127.071" fill="#E6EAEF" rx="3.301"/>
                <rect width="80.843" height="7.427" x="53.208" y="98.611" fill="#9BA9BB" rx="3.713"/>
                <rect width="34.235" height="3.301" x="32.997" y="87.471" fill="#E6EAEF" rx="1.65"/>
                <path fill="#F9FAFB" d="M.5 1.773C.5 1.07 1.073.5 1.773.5h143.454c.703 0 1.273.572 1.273 1.273V78.5H.5V1.773z"/>
            </g>
        </g>
    </g>
</svg>
