<svg xmlns="http://www.w3.org/2000/svg" width="203" height="198" viewBox="0 0 203 198">
    <defs>
        <linearGradient id="in9psrrzza" x1="50%" x2="50%" y1=".885%" y2="125.047%">
            <stop offset="0%" stop-color="#FFF"/>
            <stop offset="100%" stop-color="#FFF" stop-opacity="0"/>
        </linearGradient>
    </defs>
    <g fill="none" fill-rule="evenodd">
        <g>
            <path fill="#F8F9FA" fill-rule="nonzero" stroke="#ECEFF2" d="M168.06 20.87c.441 0 .841.18 1.131.467.29.288.47.685.47 1.123h0v153.173c0 .618-.251 1.177-.656 1.582-.404.405-.963.656-1.58.656h0-142.53c-.616 0-1.175-.25-1.58-.655-.404-.405-.655-.965-.655-1.583h0V22.46c0-.439.18-.836.469-1.124.29-.288.69-.465 1.133-.465h143.797z" transform="rotate(-18 96.16 99.37)"/>
            <g fill-rule="nonzero" transform="translate(26 14)">
                <path fill="#FFF" stroke="#ECEFF2" d="M145.399 0c.442 0 .842.18 1.132.47.29.29.469.689.469 1.13h0v154.148c0 .622-.25 1.185-.655 1.592-.405.408-.964.66-1.58.66h0H2.235c-.617 0-1.175-.252-1.58-.66-.405-.407-.655-.97-.655-1.592h0V1.6C0 1.158.179.758.468.47.758.178 1.158 0 1.601 0H145.4z"/>
                <rect width="23.511" height="3.301" x="7.837" y="87.471" fill="#E6EAEF" rx="1.65"/>
                <rect width="42.071" height="7.427" x="7.837" y="98.611" fill="#9BA9BB" rx="3.713"/>
                <rect width="117.552" height="6.602" x="7.837" y="113.737" fill="#E6EAEF" rx="3.301"/>
                <rect width="50.733" height="6.602" x="7.837" y="140.406" fill="#E6EAEF" rx="3.301"/>
                <rect width="59.395" height="6.602" x="7.837" y="127.071" fill="#E6EAEF" rx="3.301"/>
                <rect width="40.009" height="6.602" x="68.882" y="127.071" fill="#E6EAEF" rx="3.301"/>
                <rect width="80.843" height="7.427" x="53.208" y="98.611" fill="#9BA9BB" rx="3.713"/>
                <rect width="34.235" height="3.301" x="32.997" y="87.471" fill="#E6EAEF" rx="1.65"/>
                <path fill="#F9FAFB" d="M.5 1.773C.5 1.07 1.073.5 1.773.5h143.454c.703 0 1.273.572 1.273 1.273V78.5H.5V1.773z"/>
            </g>
            <g transform="translate(130 83)">
                <path stroke="#59687C" stroke-linejoin="round" stroke-width="5" d="M46.952 46.77L66.087 66.481"/>
                <path stroke="#546275" stroke-linecap="round" stroke-width="9" d="M54.241 54.28L67.424 67.86"/>
                <ellipse cx="27.416" cy="27.508" fill="#B2E0E2" fill-opacity=".5" fill-rule="nonzero" rx="27.416" ry="27.508"/>
                <ellipse cx="27.416" cy="27.508" fill="url(#in9psrrzza)" fill-opacity=".4" fill-rule="nonzero" stroke="#59687C" stroke-width="5" rx="24.829" ry="24.92"/>
                <path stroke="#FFF" stroke-linecap="round" stroke-width="5" d="M46.538 27.196c0-10.068-8.195-18.23-18.304-18.23"/>
            </g>
        </g>
    </g>
</svg>
