<svg xmlns="http://www.w3.org/2000/svg" xmlns:xlink="http://www.w3.org/1999/xlink" width="830" height="440" viewBox="0 0 830 440">
    <defs>
        <path id="3l60nnvn9a" d="M160 320c88.366 0 160-71.634 160-160S248.366 0 160 0 0 71.634 0 160s71.634 160 160 160z"/>
    </defs>
    <g fill="none" fill-rule="evenodd">
        <g>
            <g transform="translate(-1005 -2957) translate(1005 2957)">
                <rect width="830" height="440" fill="#6950A5" rx="2"/>
                <g transform="translate(255 60)">
                    <mask id="3bcr6atmqb" fill="#fff">
                        <use xlink:href="#3l60nnvn9a"/>
                    </mask>
                    <use fill="#765ABB" xlink:href="#3l60nnvn9a"/>
                    <g fill="#503888" mask="url(#3bcr6atmqb)" opacity=".7">
                        <g>
                            <path d="M17.909 92.038H29.003V161.856H17.909zM.455 59.31H11.549V136.401H.455zM35.475 113.856H46.569V182.22H35.475zM53.04 161.935H64.134V191.026H53.04zM70.606 121.129H81.69999999999999V198.947H70.606zM88.171 91.455H99.265V205.88H88.171zM105.737 48.545H116.83099999999999V205.87900000000002H105.737zM123.031 158.003H134.125V206.003H123.031zM140.596 183.907H151.69V206.00300000000001H140.596zM158.051 163.822H169.14499999999998V206.00400000000002H158.051zM175.998 171.352H187.09199999999998V205.88H175.998zM193.453 133.833H204.547V205.88H193.453zM211.129 102.295H222.22299999999998V205.88H211.129zM228.695 133.88H239.789V184.789H228.695zM246.26 102.295H257.354V179.386H246.26zM263.826 42.655H274.92V158.291H263.826zM281.391.789H292.485V136.06199999999998H281.391z" transform="translate(14.818 115.818)"/>
                        </g>
                    </g>
                </g>
                <path stroke="#FFF" stroke-linecap="round" stroke-linejoin="round" stroke-width="15" d="M242.256 186.902l3.716-3.336 15.938-14.312c2.052-1.843 5.203-1.67 7.039.387l21.016 23.553c1.835 2.057 3.979 1.584 4.79-1.066l15.188-49.56c.811-2.645 3.24-3.432 5.433-1.751l28.794 22.062c2.19 1.678 4.937 1.01 6.13-1.477l29.055-60.601c1.196-2.494 3.162-2.521 4.398-.048l52.288 104.575c1.234 2.467 3.223 2.458 4.446-.023l11.79-23.929c1.223-2.48 4.391-3.977 7.086-3.343l22.686 5.338c2.69.633 5.958-.804 7.308-3.23l23.268-41.802c1.345-2.417 4.449-5.367 6.924-6.585l52.07-25.628" opacity=".6"/>
                <g transform="translate(323.157 126.182)">
                    <path fill="#CA804A" d="M38.936 172.148l111.795.223V56.729c-5.986-32.453-24.888-49.417-56.707-50.892-20.376 65.768-38.739 119.106-55.088 160.015v6.296z"/>
                    <circle cx="70.724" cy="91.708" r="23.316" fill="#090808" fill-opacity=".25"/>
                    <path fill="#EC9352" d="M94.024 162.986h34.222V72.463c-.345-21.177-6.167-32.733-17.464-34.668 0-12.795-1.68-26.15-16.758-31.958v157.149z"/>
                    <path fill="#CA8054" d="M43.57 161.455h103.818c8.284 0 15 6.715 15 15v22.818H28.57v-22.818c0-8.285 6.716-15 15-15z"/>
                    <path fill="#AF6B40" d="M43.57 161.455h50.454v37.818H28.57v-22.818c0-8.285 6.716-15 15-15z"/>
                    <path fill="#C37644" d="M94.024 5.837C90.656 2.132 82.281 0 69.281 0v30.578H45.324L.185 87.292 21.3 114.201l27.622-6.564c22.143 10.613 37.178 4.802 45.103-17.43.034-56.21.034-84.333 0-84.37z"/>
                    <path fill="#0A0A0A" fill-opacity=".25" d="M44.462 20.984L71.483 21.126 71.483 34.196 42.444 34.196 43.684 32.636z"/>
                    <path fill="#AE6B37" d="M32.958 19.65L71.483 19.65 71.483 32.749 32.958 32.749z"/>
                    <path fill="#724623" d="M67.134 48.733L80.903 48.733 80.903 62.565 67.134 62.565z"/>
                </g>
            </g>
        </g>
    </g>
</svg>
