<svg xmlns="http://www.w3.org/2000/svg" width="18" height="18" viewBox="0 0 18 18">
    <g fill="none" fill-rule="evenodd">
        <g fill="#59687C">
            <path d="M3.875 5.852c-.483 0-.875.415-.875.926v3.876c0 .513.393.927.876.926.483 0 .875-.413.875-.926V6.777c0-.51-.393-.926-.876-.925zM10.93 2.37l.61-1.18c.033-.061.012-.14-.047-.175-.06-.033-.133-.01-.165.052l-.617 1.192c-.519-.244-1.1-.381-1.714-.38-.613-.001-1.194.135-1.71.378L6.67 1.068c-.032-.063-.106-.085-.165-.051-.06.034-.08.112-.048.174l.611 1.179c-1.2.655-2.011 1.902-2.01 3.335l7.88-.001c.001-1.432-.809-2.677-2.007-3.334zM7.205 4.194c-.181 0-.33-.157-.33-.35 0-.192.148-.35.33-.35.183 0 .33.158.331.35 0 .193-.148.35-.331.35zm3.589 0c-.182 0-.33-.157-.33-.35 0-.192.147-.35.33-.35.181 0 .33.158.33.35 0 .193-.148.35-.33.35zM5.09 6.026v6.008c0 .546.418.987.934.987h.636v2.052c0 .51.393.926.875.926.484 0 .875-.416.876-.927v-2.05h1.18v2.05c0 .51.393.927.875.926.484 0 .876-.415.876-.926v-2.051h.637c.515 0 .934-.442.934-.989V6.025l-7.823.002zm9.91.75c0-.512-.392-.927-.876-.926-.483 0-.874.414-.874.926v3.876c0 .512.392.926.875.926.484 0 .875-.414.875-.926V6.776z"/>
        </g>
    </g>
</svg>
