<svg xmlns="http://www.w3.org/2000/svg" width="128" height="43" viewBox="0 0 128 43">
    <g fill="none" fill-rule="evenodd">
        <g fill-rule="nonzero">
            <g>
                <g>
                    <g>
                        <path fill="#A6A6A6" d="M117.477 0H10.17c-.39 0-.777 0-1.167.002-.327.002-.65.009-.98.014-.717.008-1.431.072-2.138.19-.706.12-1.39.348-2.028.674-.637.329-1.22.756-1.726 1.267-.51.509-.934 1.097-1.257 1.743-.324.643-.55 1.333-.667 2.046-.118.71-.182 1.43-.19 2.152-.01.33-.012.66-.017.99v24.847c.005.334.006.658.016.992.009.72.073 1.44.191 2.152.118.712.342 1.403.667 2.047.323.643.748 1.229 1.257 1.735.504.513 1.087.94 1.726 1.267.639.327 1.322.556 2.028.678.707.117 1.421.18 2.137.19.33.008.654.012.98.012.39.002.777.002 1.168.002h107.307c.383 0 .773 0 1.156-.002.325 0 .659-.004.984-.012.715-.009 1.428-.072 2.133-.19.708-.123 1.394-.351 2.035-.678.639-.327 1.221-.754 1.725-1.267.508-.508.934-1.094 1.26-1.735.323-.645.546-1.335.661-2.047.12-.712.185-1.431.198-2.152.004-.334.004-.658.004-.992.009-.39.009-.778.009-1.175V10.25c0-.393 0-.784-.009-1.173 0-.33 0-.66-.004-.99-.013-.722-.079-1.441-.198-2.152-.116-.712-.338-1.402-.66-2.047-.659-1.293-1.703-2.345-2.986-3.01-.641-.325-1.327-.552-2.035-.673-.705-.119-1.418-.182-2.133-.19-.325-.006-.659-.012-.984-.014C118.25 0 117.86 0 117.477 0z" transform="translate(-70 -1395) translate(70 1395)"/>
                        <path fill="#000" d="M9.008 42.06c-.325 0-.642-.005-.965-.012-.668-.009-1.334-.068-1.994-.175-.614-.107-1.21-.306-1.767-.59-.551-.28-1.054-.65-1.49-1.092-.441-.438-.81-.945-1.088-1.502-.283-.56-.478-1.16-.58-1.781-.11-.666-.169-1.34-.177-2.016-.007-.226-.016-.981-.016-.981V9.078s.01-.744.016-.962c.008-.674.067-1.347.176-2.012.102-.622.298-1.225.58-1.787.278-.557.644-1.064 1.083-1.503.438-.443.943-.814 1.496-1.1.555-.282 1.15-.48 1.763-.584.662-.109 1.33-.168 2-.176L9.009.94h109.62l.974.013c.664.008 1.327.067 1.982.175.62.106 1.22.305 1.783.589 1.107.575 2.007 1.485 2.576 2.601.278.559.47 1.157.57 1.773.111.67.173 1.349.186 2.029.003.304.003.631.003.957.008.403.008.786.008 1.173V32.75c0 .39 0 .771-.008 1.156 0 .35 0 .67-.004.999-.013.668-.073 1.334-.182 1.992-.1.625-.294 1.23-.576 1.796-.282.55-.647 1.053-1.084 1.49-.435.444-.94.815-1.492 1.099-.56.285-1.16.485-1.78.59-.659.11-1.325.168-1.993.176-.313.007-.64.011-.958.011l-1.156.003-108.47-.003z" transform="translate(-70 -1395) translate(70 1395)"/>
                    </g>
                    <g fill="#FFF">
                        <g>
                            <path d="M15.828 13.223c.023-1.823.972-3.508 2.514-4.463-.977-1.406-2.555-2.266-4.258-2.32-1.79-.19-3.527 1.08-4.44 1.08-.93 0-2.336-1.06-3.85-1.03-1.99.065-3.802 1.179-4.77 2.933-2.063 3.6-.524 8.89 1.452 11.8.988 1.424 2.144 3.015 3.656 2.959 1.48-.062 2.032-.95 3.818-.95 1.77 0 2.288.95 3.83.914 1.588-.026 2.588-1.431 3.542-2.87.71-1.014 1.257-2.136 1.62-3.324-1.886-.803-3.112-2.665-3.114-4.729zM12.914 4.527c.866-1.048 1.292-2.394 1.189-3.753-1.323.14-2.544.777-3.421 1.784-.867.994-1.306 2.294-1.22 3.614 1.34.014 2.612-.593 3.452-1.645z" transform="translate(-70 -1395) translate(70 1395) translate(10.592 8.6)"/>
                        </g>
                        <g>
                            <path d="M8.856 10.9h-5.05l-1.212 3.608H.456L5.238 1.16H7.46l4.782 13.35h-2.175L8.856 10.9zM4.33 9.235h4.002L6.359 3.38h-.055L4.33 9.235zM22.57 9.642c0 3.025-1.606 4.968-4.03 4.968-1.253.066-2.433-.595-3.038-1.703h-.046v4.821h-1.983V4.776h1.92v1.618h.036c.632-1.1 1.813-1.761 3.075-1.72 2.45 0 4.066 1.952 4.066 4.968zm-2.037 0c0-1.97-1.01-3.265-2.552-3.265-1.515 0-2.534 1.322-2.534 3.265 0 1.961 1.02 3.275 2.534 3.275 1.541 0 2.552-1.286 2.552-3.275zM33.2 9.642c0 3.025-1.607 4.968-4.03 4.968-1.254.066-2.434-.595-3.04-1.703h-.045v4.821h-1.982V4.776h1.918v1.618h.037c.632-1.1 1.814-1.761 3.075-1.72 2.45 0 4.066 1.952 4.066 4.968zm-2.038 0c0-1.97-1.01-3.265-2.552-3.265-1.515 0-2.533 1.322-2.533 3.265 0 1.961 1.018 3.275 2.533 3.275 1.542 0 2.552-1.286 2.552-3.275zM40.225 10.789c.146 1.324 1.422 2.193 3.166 2.193 1.671 0 2.873-.87 2.873-2.063 0-1.036-.725-1.657-2.442-2.082l-1.716-.417c-2.433-.592-3.562-1.738-3.562-3.598 0-2.304 1.992-3.886 4.82-3.886 2.799 0 4.718 1.582 4.782 3.886h-2c-.12-1.333-1.213-2.137-2.81-2.137s-2.69.814-2.69 1.998c0 .944.698 1.5 2.406 1.924l1.459.362c2.718.647 3.847 1.747 3.847 3.7 0 2.498-1.974 4.062-5.114 4.062-2.937 0-4.92-1.528-5.049-3.942h2.03zM52.636 2.472v2.304h1.836v1.582h-1.836v5.365c0 .834.368 1.222 1.175 1.222.218-.004.436-.02.652-.046v1.573c-.363.068-.732.099-1.101.092-1.955 0-2.718-.74-2.718-2.628V6.358H49.24V4.776h1.404V2.472h1.992zM55.536 9.642c0-3.062 1.79-4.986 4.58-4.986 2.8 0 4.581 1.924 4.581 4.986 0 3.071-1.771 4.987-4.58 4.987-2.81 0-4.581-1.916-4.581-4.987zm7.142 0c0-2.1-.956-3.34-2.562-3.34-1.606 0-2.56 1.25-2.56 3.34 0 2.11.954 3.34 2.56 3.34s2.562-1.23 2.562-3.34zM66.332 4.776h1.89v1.656h.046c.264-1.066 1.233-1.8 2.323-1.758.229-.001.456.024.68.074v1.869c-.289-.089-.59-.13-.891-.12-.583-.025-1.147.21-1.544.64-.397.43-.588 1.014-.522 1.598v5.773h-1.982V4.776zM80.41 11.65c-.267 1.766-1.974 2.979-4.158 2.979-2.81 0-4.554-1.897-4.554-4.94 0-3.053 1.754-5.033 4.47-5.033 2.672 0 4.352 1.85 4.352 4.8v.685H73.7v.12c-.064.725.184 1.443.681 1.97.497.528 1.195.814 1.916.788.962.09 1.87-.466 2.23-1.37h1.883zm-6.701-2.905h4.828c.036-.651-.2-1.288-.649-1.757-.45-.469-1.073-.727-1.72-.713-.652-.004-1.278.254-1.74.718-.462.464-.72 1.095-.72 1.752z" transform="translate(-70 -1395) translate(70 1395) translate(10.592 8.6) translate(25.674 9.675)"/>
                        </g>
                    </g>
                </g>
                <g fill="#FFF">
                    <path d="M3.005.835c.838-.064 1.66.279 2.238.935.578.657.852 1.557.746 2.454 0 2.178-1.095 3.43-2.984 3.43H.713V.836h2.292zM1.699 6.69h1.196c.599.039 1.183-.215 1.588-.69.406-.477.591-1.124.504-1.762.08-.636-.107-1.278-.512-1.75-.404-.472-.984-.724-1.58-.689H1.699V6.69zM7.102 5.08c-.082-.923.33-1.816 1.062-2.304.733-.489 1.66-.489 2.392 0 .732.488 1.144 1.38 1.062 2.303.083.924-.328 1.818-1.06 2.308-.734.49-1.662.49-2.395 0-.733-.49-1.144-1.384-1.06-2.308zm3.544 0c0-1.116-.466-1.769-1.284-1.769-.822 0-1.284.653-1.284 1.768 0 1.125.462 1.772 1.284 1.772.818 0 1.284-.652 1.284-1.772zM17.619 7.655L16.639 7.655 15.65 3.864 15.575 3.864 14.59 7.655 13.619 7.655 12.3 2.508 13.258 2.508 14.115 6.435 14.186 6.435 15.17 2.508 16.077 2.508 17.061 6.435 17.136 6.435 17.989 2.508 18.934 2.508zM20.044 2.508h.91v.818h.07c.245-.602.819-.97 1.428-.917.472-.038.934.156 1.257.529.322.372.47.882.4 1.385v3.332h-.945V4.578c0-.827-.334-1.238-1.033-1.238-.32-.016-.63.119-.85.37-.22.25-.327.591-.293.934v3.01h-.944V2.509zM25.615.499L26.559.499 26.559 7.655 25.615 7.655zM27.873 5.08c-.082-.923.33-1.816 1.062-2.305.732-.488 1.659-.488 2.391 0 .733.489 1.144 1.382 1.062 2.304.084.924-.327 1.818-1.06 2.308-.733.49-1.661.49-2.395 0-.733-.49-1.144-1.384-1.06-2.308zm3.543 0c0-1.116-.466-1.769-1.284-1.769-.821 0-1.283.653-1.283 1.768 0 1.125.462 1.772 1.283 1.772.818 0 1.284-.652 1.284-1.772zM33.383 6.2c0-.927.642-1.461 1.78-1.537l1.297-.08v-.445c0-.543-.334-.85-.98-.85-.527 0-.893.208-.998.572h-.914c.096-.884.87-1.45 1.956-1.45 1.2 0 1.877.641 1.877 1.728v3.517h-.91V6.93h-.074c-.31.529-.859.837-1.438.808-.407.046-.812-.096-1.116-.39-.304-.293-.478-.71-.48-1.15zm3.077-.44v-.43l-1.169.08c-.659.047-.958.288-.958.742 0 .463.374.732.888.732.304.034.608-.067.841-.28.234-.212.378-.517.398-.845zM38.643 5.08c0-1.627.777-2.657 1.987-2.657.61-.03 1.182.322 1.468.903h.07V.499h.945v7.156h-.905V6.84h-.075c-.307.577-.886.923-1.503.898-1.218 0-1.987-1.03-1.987-2.66zm.976 0c0 1.09.478 1.748 1.279 1.748.796 0 1.288-.667 1.288-1.744 0-1.073-.497-1.749-1.288-1.749-.796 0-1.28.662-1.28 1.744zM47.022 5.08c-.082-.923.33-1.816 1.062-2.304.732-.489 1.659-.489 2.391 0 .733.488 1.144 1.38 1.062 2.303.084.924-.327 1.818-1.06 2.308-.733.49-1.662.49-2.395 0-.733-.49-1.144-1.384-1.06-2.308zm3.543 0c0-1.116-.466-1.769-1.284-1.769-.821 0-1.283.653-1.283 1.768 0 1.125.462 1.772 1.283 1.772.818 0 1.284-.652 1.284-1.772zM52.805 2.508h.91v.818h.07c.245-.602.819-.97 1.428-.917.472-.038.935.156 1.257.529.322.372.47.882.4 1.385v3.332h-.944V4.578c0-.827-.335-1.238-1.033-1.238-.32-.016-.631.119-.85.37-.22.25-.327.591-.294.934v3.01h-.944V2.509zM62.209 1.227v1.305h1.037v.855h-1.037v2.646c0 .54.206.776.677.776.12 0 .24-.009.36-.024v.846c-.17.033-.342.05-.514.052-1.05 0-1.469-.397-1.469-1.39V3.388h-.76v-.855h.76V1.227h.946zM64.536.5h.937v2.835h.075c.257-.607.84-.975 1.46-.922.468-.027.925.172 1.243.543.32.37.468.875.405 1.376v3.323h-.946V4.583c0-.822-.356-1.239-1.023-1.239-.33-.029-.653.1-.885.351-.233.252-.35.6-.32.954v3.006h-.945V.499zM74.165 6.265c-.265.97-1.139 1.598-2.075 1.489-.638.018-1.251-.266-1.677-.778-.426-.511-.621-1.198-.534-1.878-.085-.682.11-1.37.533-1.886.423-.516 1.034-.809 1.674-.803 1.332 0 2.136.978 2.136 2.594v.355h-3.38v.057c-.03.382.09.76.334 1.04.242.28.584.438.94.434.463.06.913-.187 1.14-.624h.909zM70.84 4.607h2.418c.025-.35-.09-.694-.314-.948-.225-.253-.538-.394-.864-.386-.33-.004-.648.135-.881.386-.234.251-.363.593-.359.948z" transform="translate(-70 -1395) translate(70 1395) translate(37.705 8)"/>
                </g>
            </g>
        </g>
    </g>
</svg>
