<svg xmlns="http://www.w3.org/2000/svg" width="18" height="18" viewBox="0 0 18 18">
    <g fill="none" fill-rule="evenodd">
        <g fill="#59687C">
            <path d="M13.022 8.97c.02 2.269 1.957 3.024 1.978 3.034-.016.053-.31 1.077-1.02 2.133-.614.914-1.252 1.825-2.256 1.844-.987.018-1.304-.596-2.432-.596s-1.48.577-2.415.614c-.97.037-1.707-.988-2.327-1.899-1.265-1.862-2.232-5.262-.934-7.557.645-1.14 1.798-1.862 3.05-1.88.952-.019 1.85.652 2.432.652.581 0 1.673-.806 2.821-.688.48.02 1.83.197 2.696 1.488-.07.044-1.61.956-1.593 2.854m-1.854-5.574c.514-.634.86-1.517.766-2.395-.742.03-1.639.503-2.17 1.137-.478.561-.895 1.46-.783 2.32.827.065 1.672-.428 2.187-1.062"/>
        </g>
    </g>
</svg>
