<svg xmlns="http://www.w3.org/2000/svg" width="16" height="16" viewBox="0 0 16 16">
    <g fill="none" fill-rule="evenodd">
        <g fill="#9BA9BB">
            <path d="M13 4.333c.798 0 1.444.638 1.444 1.448v5.774h5.775c.752 0 1.37.568 1.441 1.305l.007.14c0 .798-.638 1.444-1.448 1.444h-5.775v5.775c0 .752-.567 1.37-1.304 1.441l-.14.007c-.798 0-1.444-.638-1.444-1.448v-5.775H5.78c-.8 0-1.448-.64-1.448-1.444 0-.798.638-1.444 1.448-1.444h5.774V5.78c0-.752.568-1.37 1.305-1.441l.14-.007z" transform="translate(-5 -5) rotate(45 13 13)"/>
        </g>
    </g>
</svg>
