<svg xmlns="http://www.w3.org/2000/svg" width="24" height="24" viewBox="0 0 24 24">
    <g fill="none" fill-rule="evenodd">
        <g fill="#FF4D63">
            <path d="M16.667 5c1.074 0 1.944.872 1.944 1.95v7.772h7.773c1.025 0 1.866.783 1.943 1.792l.006.153c0 1.074-.872 1.944-1.949 1.944h-7.773v7.773c0 1.025-.783 1.866-1.791 1.943l-.153.006c-1.074 0-1.945-.872-1.945-1.949v-7.773H6.949C5.873 18.611 5 17.748 5 16.667c0-1.074.872-1.945 1.95-1.945h7.772V6.949c0-1.025.783-1.865 1.792-1.943L16.667 5z" transform="translate(-5 -5) rotate(45 16.667 16.667)"/>
        </g>
    </g>
</svg>
