<svg xmlns="http://www.w3.org/2000/svg" width="24" height="24" viewBox="0 0 24 24">
    <g fill="none" fill-rule="evenodd">
        <g fill="#4267B2">
            <path d="M20.674 2.25c.594 0 1.076.482 1.076 1.076v17.348c0 .594-.482 1.076-1.076 1.076H3.326c-.594 0-1.076-.482-1.076-1.076V3.326c0-.594.482-1.076 1.076-1.076zM16.45 5.195c-2.247 0-3.785 1.372-3.785 3.89v2.17h-2.542V14.2h2.542v7.551h3.039v-7.551h2.534l.38-2.943h-2.914v-1.88c0-.851.236-1.432 1.458-1.432h1.559V5.31c-.27-.036-1.195-.116-2.271-.116z"/>
        </g>
    </g>
</svg>
