<svg xmlns="http://www.w3.org/2000/svg" width="128" height="38" viewBox="0 0 128 38">
    <defs>
        <linearGradient id="k1pvp1mwza" x1="61.131%" x2="26.248%" y1="4.95%" y2="71.926%">
            <stop offset="0%" stop-color="#00A0FF"/>
            <stop offset=".657%" stop-color="#00A1FF"/>
            <stop offset="26.01%" stop-color="#00BEFF"/>
            <stop offset="51.22%" stop-color="#00D2FF"/>
            <stop offset="76.04%" stop-color="#00DFFF"/>
            <stop offset="100%" stop-color="#00E3FF"/>
        </linearGradient>
        <linearGradient id="nm95m1savb" x1="107.63%" x2="-130.552%" y1="50%" y2="50%">
            <stop offset="0%" stop-color="#FFE000"/>
            <stop offset="40.87%" stop-color="#FFBD00"/>
            <stop offset="77.54%" stop-color="orange"/>
            <stop offset="100%" stop-color="#FF9C00"/>
        </linearGradient>
        <linearGradient id="g7396uqz6c" x1="86.243%" x2="-50.129%" y1="31.19%" y2="134.733%">
            <stop offset="0%" stop-color="#FF3A44"/>
            <stop offset="100%" stop-color="#C31162"/>
        </linearGradient>
        <linearGradient id="qy6rfnutmd" x1="-18.811%" x2="42.085%" y1="-10.972%" y2="35.292%">
            <stop offset="0%" stop-color="#32A071"/>
            <stop offset="6.85%" stop-color="#2DA771"/>
            <stop offset="47.62%" stop-color="#15CF74"/>
            <stop offset="80.09%" stop-color="#06E775"/>
            <stop offset="100%" stop-color="#00F076"/>
        </linearGradient>
    </defs>
    <g fill="none" fill-rule="evenodd">
        <g>
            <g>
                <path fill="#000" fill-rule="nonzero" d="M123.022 38H4.862C2.256 38 .134 35.858.134 33.25V4.75C.134 2.132 2.256 0 4.862 0h118.16c2.604 0 4.729 2.132 4.729 4.75v28.5c0 2.608-2.125 4.75-4.729 4.75z" transform="translate(-219 -1398) translate(219 1398)"/>
                <path fill="#A6A6A6" d="M123.022.76c2.186 0 3.975 1.794 3.975 3.99v28.5c0 2.196-1.777 3.99-3.975 3.99H4.862c-2.186 0-3.975-1.794-3.975-3.99V4.75C.887 2.554 2.665.76 4.862.76h118.16zm0-.76H4.862C2.256 0 .134 2.142.134 4.75v28.5c0 2.618 2.122 4.75 4.728 4.75h118.16c2.604 0 4.729-2.132 4.729-4.75V4.75c0-2.608-2.125-4.75-4.729-4.75z" transform="translate(-219 -1398) translate(219 1398)"/>
                <path fill="#FFF" fill-rule="nonzero" d="M67.263 12.408c-.853 0-1.572-.304-2.14-.902-.565-.581-.88-1.383-.866-2.201 0-.873.292-1.613.865-2.199.567-.598 1.286-.902 2.14-.902.843 0 1.562.304 2.14.902.574.605.865 1.345.865 2.199-.01.876-.3 1.615-.865 2.199-.566.603-1.285.904-2.139.904zm-25.386 0c-.834 0-1.558-.299-2.15-.89-.588-.588-.887-1.333-.887-2.21 0-.879.299-1.623.886-2.211.581-.591 1.305-.89 2.151-.89.414 0 .816.083 1.201.253.379.165.686.39.914.665l.057.07-.637.636-.066-.079c-.36-.435-.841-.648-1.478-.648-.57 0-1.065.205-1.474.612-.411.41-.62.945-.62 1.594 0 .648.209 1.184.62 1.593.409.407.905.613 1.474.613.606 0 1.116-.206 1.513-.613.235-.24.381-.574.433-.998H41.77v-.894h2.92l.011.081c.021.15.043.306.043.45 0 .825-.245 1.493-.73 1.986-.55.583-1.268.88-2.138.88zm33.754-.127h-.9l-2.757-4.49.023.808v3.68h-.9V6.333h1.027l.028.046 2.593 4.23-.024-.806v-3.47h.91v5.948zm-15.132 0h-.912V7.228h-1.582v-.895h4.074v.895h-1.582v5.053h.002zm-3.236 0h-.91V6.333h.91v5.948zm-5.112 0h-.91V7.228h-1.582v-.895h4.073v.895h-1.581v5.053zm-3.068-.01h-3.488V6.334h3.488v.895h-2.576V8.86h2.325v.885h-2.325v1.632h2.576v.895zm16.707-1.38c.406.414.9.622 1.473.622.59 0 1.072-.203 1.474-.622.4-.407.602-.94.602-1.584 0-.643-.202-1.18-.6-1.584-.406-.414-.902-.622-1.473-.622-.59 0-1.072.204-1.472.622-.4.407-.601.94-.601 1.584 0 .644.2 1.18.597 1.584z" transform="translate(-219 -1398) translate(219 1398)"/>
                <path fill="#FFF" d="M64.3 20.801c-2.216 0-4.013 1.71-4.013 4.067 0 2.337 1.808 4.068 4.013 4.068 2.217 0 4.014-1.722 4.014-4.068 0-2.357-1.797-4.067-4.014-4.067zm0 6.523c-1.213 0-2.256-1.02-2.256-2.465 0-1.466 1.046-2.465 2.256-2.465 1.213 0 2.257.999 2.257 2.465.002 1.454-1.044 2.465-2.257 2.465zm-8.756-6.523c-2.217 0-4.014 1.71-4.014 4.067 0 2.337 1.809 4.068 4.014 4.068 2.216 0 4.013-1.722 4.013-4.068 0-2.357-1.799-4.067-4.013-4.067zm0 6.523c-1.213 0-2.257-1.02-2.257-2.465 0-1.466 1.046-2.465 2.257-2.465 1.213 0 2.256.999 2.256 2.465 0 1.454-1.043 2.465-2.256 2.465zm-10.42-5.28v1.72h4.065c-.124.966-.438 1.679-.92 2.168-.595.605-1.514 1.263-3.135 1.263-2.498 0-4.452-2.05-4.452-4.59 0-2.538 1.954-4.588 4.452-4.588 1.349 0 2.331.54 3.06 1.232l1.202-1.22c-1.013-.988-2.362-1.743-4.253-1.743-3.427 0-6.303 2.837-6.303 6.31 0 3.484 2.874 6.311 6.303 6.311 1.85 0 3.24-.615 4.337-1.774 1.12-1.137 1.473-2.741 1.473-4.036 0-.403-.03-.765-.093-1.073h-5.738c.002-.002.002.02.002.02zm42.619 1.34c-.336-.914-1.349-2.592-3.427-2.592-2.06 0-3.772 1.647-3.772 4.067 0 2.284 1.693 4.067 3.971 4.067 1.83 0 2.895-1.137 3.333-1.805l-1.358-.925c-.45.68-1.077 1.126-1.966 1.126-.898 0-1.527-.415-1.944-1.233l5.35-2.253c0 .003-.187-.453-.187-.453zm-5.456 1.358c-.043-1.571 1.2-2.37 2.09-2.37.701 0 1.285.35 1.484.861l-3.574 1.51zm-4.347 3.941h1.757v-11.95H77.94v11.95zm-2.885-6.978h-.063c-.397-.48-1.15-.913-2.111-.913-1.997 0-3.836 1.785-3.836 4.079 0 2.284 1.83 4.048 3.836 4.048.95 0 1.714-.436 2.11-.925h.064v.584c0 1.552-.816 2.389-2.132 2.389-1.077 0-1.745-.787-2.017-1.445l-1.527.649c.438 1.072 1.609 2.4 3.541 2.4 2.06 0 3.805-1.232 3.805-4.238v-7.298h-1.66v.67h-.01zm-2.017 5.619c-1.213 0-2.226-1.03-2.226-2.453 0-1.435 1.013-2.475 2.226-2.475 1.2 0 2.132 1.052 2.132 2.475.012 1.423-.929 2.453-2.132 2.453zm22.93-10.59h-4.2v11.949h1.757v-4.525h2.446c1.945 0 3.857-1.433 3.857-3.707 0-2.275-1.905-3.717-3.86-3.717zm.053 5.755h-2.499v-4.1h2.499c1.315 0 2.059 1.103 2.059 2.05 0 .937-.753 2.05-2.06 2.05zm10.848-1.71c-1.276 0-2.592.575-3.136 1.827l1.558.658c.335-.658.95-.882 1.6-.882.91 0 1.829.553 1.85 1.54v.126c-.314-.18-1.004-.457-1.83-.457-1.681 0-3.387.934-3.387 2.686 0 1.605 1.38 2.635 2.916 2.635 1.18 0 1.83-.541 2.235-1.168h.064v.925h1.693V24.09c0-2.131-1.557-3.311-3.563-3.311zm-.22 6.545c-.575 0-1.38-.286-1.38-1.02 0-.925 1.004-1.276 1.86-1.276.775 0 1.14.17 1.6.403-.126 1.073-1.018 1.884-2.08 1.893zm9.962-6.29l-2.018 5.184h-.063l-2.09-5.183h-1.89l3.136 7.245-1.788 4.027h1.83l4.825-11.272h-1.942zm-15.815 7.649h1.757v-11.95h-1.757v11.95z" transform="translate(-219 -1398) translate(219 1398)"/>
                <path fill="url(#k1pvp1mwza)" d="M9.764 7.043c-.274.294-.433.744-.433 1.333v20.872c0 .589.159 1.039.443 1.321l.073.064 11.748-11.695v-.261L9.837 6.98l-.073.063z" transform="translate(-219 -1398) translate(219 1398)"/>
                <path fill="url(#nm95m1savb)" d="M25.492 23.265l-3.897-3.933v-.276l3.897-3.934.085.053 4.61 2.644c1.319.75 1.319 1.99 0 2.75l-4.61 2.644-.085.052z" transform="translate(-219 -1398) translate(219 1398)"/>
                <path fill="url(#g7396uqz6c)" d="M25.81 22.945L21.835 19 10.098 30.65c.43.456 1.15.507 1.956.062l13.756-7.767" transform="translate(-219 -1398) translate(219 1398)"/>
                <path fill="url(#qy6rfnutmd)" d="M25.81 15.052l-13.756-7.76c-.806-.457-1.529-.394-1.956.063L21.835 19l3.975-3.948z" transform="translate(-219 -1398) translate(219 1398)"/>
                <path fill="#000" fill-rule="nonzero" d="M25.717 22.878L12.054 30.57c-.763.435-1.444.405-1.883.01l-.073.072.073.062c.439.394 1.12.426 1.883-.009l13.756-7.744-.093-.083z" opacity=".2" transform="translate(-219 -1398) translate(219 1398)"/>
                <path fill="#000" fill-rule="nonzero" d="M30.19 20.193l-4.763 2.602.086.083 4.665-2.552c.67-.366.998-.847.998-1.326-.04.44-.381.857-.986 1.193z" opacity=".12" transform="translate(-219 -1398) translate(219 1398)"/>
                <path fill="#FFF" d="M11.73 7.432l18.457 10.354c.6.333.937.769.989 1.214 0-.487-.326-.977-.99-1.35L11.73 7.296c-1.325-.748-2.399-.123-2.399 1.371v.135c0-1.496 1.074-2.11 2.399-1.37z" opacity=".25" transform="translate(-219 -1398) translate(219 1398)"/>
            </g>
        </g>
    </g>
</svg>
