<svg xmlns="http://www.w3.org/2000/svg" width="24" height="24" viewBox="0 0 24 24">
    <g fill="none" fill-rule="evenodd">
        <g fill="#FF4D63">
            <path d="M12 4.007c2.603 0 2.912.01 3.94.057.95.043 1.467.202 1.81.335.455.177.78.389 1.121.73.341.34.553.666.73 1.12.133.344.292.86.335 1.811.047 1.028.057 1.337.057 3.94 0 2.603-.01 2.912-.057 3.94-.043.95-.202 1.467-.335 1.81-.177.455-.389.78-.73 1.121-.34.342-.666.553-1.12.73-.344.133-.86.292-1.811.335-1.028.047-1.336.057-3.94.057s-2.912-.01-3.94-.057c-.95-.043-1.467-.202-1.81-.335-.455-.177-.78-.388-1.121-.73-.342-.34-.553-.666-.73-1.12-.133-.344-.292-.86-.335-1.811-.047-1.028-.057-1.337-.057-3.94 0-2.603.01-2.912.057-3.94.043-.95.202-1.467.335-1.81.177-.455.388-.78.73-1.121.34-.341.666-.553 1.12-.73.344-.133.86-.292 1.811-.335 1.028-.047 1.337-.057 3.94-.057m0-1.757c-2.648 0-2.98.011-4.02.059-1.038.047-1.746.212-2.367.453-.64.249-1.185.582-1.727 1.124-.542.542-.875 1.086-1.124 1.727-.241.62-.406 1.33-.453 2.367C2.26 9.02 2.25 9.352 2.25 12c0 2.648.011 2.98.059 4.02.047 1.038.212 1.746.453 2.367.249.64.582 1.185 1.124 1.727.542.542 1.086.875 1.727 1.124.62.241 1.33.406 2.367.453 1.04.048 1.372.059 4.02.059 2.648 0 2.98-.011 4.02-.059 1.038-.047 1.746-.212 2.367-.453.64-.249 1.185-.582 1.727-1.124.542-.542.875-1.086 1.124-1.727.241-.62.406-1.33.453-2.367.048-1.04.059-1.372.059-4.02 0-2.648-.011-2.98-.059-4.02-.047-1.038-.212-1.746-.453-2.367-.249-.64-.582-1.185-1.124-1.727-.542-.542-1.086-.875-1.727-1.124-.62-.241-1.33-.406-2.367-.453-1.04-.048-1.372-.059-4.02-.059m0 4.743c2.765 0 5.007 2.242 5.007 5.007 0 2.765-2.242 5.007-5.007 5.007-2.765 0-5.007-2.242-5.007-5.007 0-2.765 2.242-5.007 5.007-5.007zm0 1.757c-1.795 0-3.25 1.455-3.25 3.25s1.455 3.25 3.25 3.25 3.25-1.455 3.25-3.25S13.795 8.75 12 8.75zm6.375-1.955c0 .647-.524 1.17-1.17 1.17-.647 0-1.17-.523-1.17-1.17 0-.646.523-1.17 1.17-1.17.646 0 1.17.524 1.17 1.17"/>
        </g>
    </g>
</svg>
