<svg xmlns="http://www.w3.org/2000/svg" width="32" height="32" viewBox="0 0 32 32">
    <defs>
        <radialGradient id="pom56ajjga" cx="26.563%" cy="107.702%" r="99.107%" fx="26.563%" fy="107.702%">
            <stop offset="0%" stop-color="#FD5"/>
            <stop offset="10%" stop-color="#FD5"/>
            <stop offset="50%" stop-color="#FF543E"/>
            <stop offset="100%" stop-color="#C837AB"/>
        </radialGradient>
    </defs>
    <g fill="none" fill-rule="evenodd">
        <g fill="url(#pom56ajjga)">
            <path d="M16 5.342c3.471 0 3.882.014 5.253.076 1.268.058 1.956.27 2.414.448.607.236 1.04.517 1.495.972.455.455.736.888.972 1.495.178.458.39 1.146.448 2.414.062 1.37.076 1.782.076 5.253s-.014 3.882-.076 5.253c-.058 1.268-.27 1.956-.448 2.414-.236.607-.517 1.04-.972 1.495-.455.455-.888.736-1.495.972-.458.178-1.146.39-2.414.448-1.37.062-1.782.076-5.253.076s-3.883-.014-5.253-.076c-1.268-.058-1.956-.27-2.414-.448-.607-.236-1.04-.517-1.495-.972-.455-.455-.736-.888-.972-1.495-.178-.458-.39-1.146-.448-2.414-.062-1.37-.076-1.782-.076-5.253s.014-3.882.076-5.253c.058-1.268.27-1.956.448-2.414.236-.607.517-1.04.972-1.495.455-.455.888-.736 1.495-.972.458-.178 1.146-.39 2.414-.448 1.37-.062 1.782-.076 5.253-.076M16 3c-3.53 0-3.973.015-5.36.078-1.384.063-2.329.283-3.156.605-.854.332-1.58.776-2.302 1.499-.723.723-1.167 1.448-1.5 2.303-.32.826-.54 1.771-.604 3.155C3.015 12.027 3 12.47 3 16c0 3.53.015 3.973.078 5.36.063 1.384.283 2.329.604 3.156.333.854.777 1.58 1.5 2.302.723.723 1.448 1.167 2.302 1.5.827.32 1.772.54 3.156.604 1.387.063 1.83.078 5.36.078 3.53 0 3.973-.015 5.36-.078 1.384-.063 2.329-.283 3.155-.604.855-.333 1.58-.777 2.303-1.5.723-.723 1.167-1.448 1.5-2.302.32-.827.54-1.772.604-3.156.063-1.387.078-1.83.078-5.36 0-3.53-.015-3.973-.078-5.36-.063-1.384-.283-2.329-.605-3.155-.332-.855-.776-1.58-1.499-2.303-.723-.723-1.448-1.167-2.303-1.5-.826-.32-1.771-.54-3.155-.604C19.973 3.015 19.53 3 16 3m0 6.324c3.687 0 6.676 2.99 6.676 6.676 0 3.687-2.99 6.676-6.676 6.676-3.687 0-6.676-2.99-6.676-6.676 0-3.687 2.99-6.676 6.676-6.676zm0 2.343c-2.393 0-4.333 1.94-4.333 4.333 0 2.393 1.94 4.333 4.333 4.333 2.393 0 4.333-1.94 4.333-4.333 0-2.393-1.94-4.333-4.333-4.333zm8.5-2.606c0 .861-.699 1.56-1.56 1.56-.862 0-1.56-.699-1.56-1.56 0-.862.698-1.56 1.56-1.56.861 0 1.56.698 1.56 1.56"/>
        </g>
    </g>
</svg>
