<svg xmlns="http://www.w3.org/2000/svg" width="32" height="32" viewBox="0 0 32 32">
    <g fill="none" fill-rule="evenodd">
        <g fill="#2867B2">
            <path d="M8.903 3v16.868H3.329V3h5.574zM6.116 22.171c1.944 0 3.154 1.296 3.154 2.914C9.233 26.741 8.06 28 6.153 28 4.247 28 3 26.74 3 25.085c0-1.618 1.21-2.914 3.08-2.914h.036zM17.56 3v9.42c0 .504.037 1.008.184 1.368.403 1.007 1.32 2.05 2.86 2.05 2.016 0 2.823-1.546 2.823-3.814V3H29v9.672c0 5.181-2.75 7.592-6.417 7.592-2.906 0-4.236-1.58-4.984-2.725l-.039-.06v2.39h-5.573c.021-.463.03-2.097.032-4.177V13.61c-.004-4.34-.027-9.462-.031-10.443V3h5.572z" transform="matrix(1 0 0 -1 0 31)"/>
        </g>
    </g>
</svg>
