<svg xmlns="http://www.w3.org/2000/svg" width="24" height="24" viewBox="0 0 24 24">
    <g fill="none" fill-rule="evenodd">
        <g fill="#FF4D63">
            <path d="M6.677 2.25v12.651h-4.18V2.25h4.18zm-2.09 14.379c1.458 0 2.365.971 2.365 2.185C6.925 20.055 6.045 21 4.615 21c-1.43 0-2.365-.945-2.365-2.186 0-1.214.907-2.185 2.31-2.185h.027zM13.17 2.25v7.065c0 .378.027.756.138 1.026.302.756.99 1.538 2.145 1.538 1.512 0 2.117-1.16 2.117-2.86V2.25h4.18v7.254c0 3.886-2.062 5.694-4.812 5.694-2.169 0-3.167-1.172-3.73-2.03l-.038-.058v1.791H8.99c.016-.339.023-1.517.024-3.027v-1.812c-.003-3.27-.02-7.071-.023-7.717V2.25h4.18z" transform="matrix(1 0 0 -1 0 23.25)"/>
        </g>
    </g>
</svg>
