<svg xmlns="http://www.w3.org/2000/svg" width="24" height="24" viewBox="0 0 24 24">
    <g fill="none" fill-rule="evenodd">
        <g fill="#59687C" fill-rule="nonzero">
            <g>
                <g>
                    <path d="M8.275 15.214l-2.352 2.352c-.975.976-2.554.976-3.528 0-.975-.974-.975-2.553 0-3.527L7.1 9.334c.974-.975 2.553-.975 3.527 0 .325.324.852.324 1.177 0 .324-.325.324-.852 0-1.177-1.624-1.624-4.257-1.624-5.88 0l-4.706 4.705c-1.624 1.624-1.624 4.257 0 5.88 1.624 1.625 4.257 1.625 5.882 0l2.352-2.351c.324-.325.324-.852 0-1.177-.325-.324-.852-.324-1.177 0z" transform="translate(-7 -212) translate(7 212) translate(2 2)"/>
                    <path d="M18.743 7.099c1.624-1.624 1.624-4.257 0-5.88-1.624-1.625-4.256-1.625-5.881 0L10.04 4.04c-.325.325-.325.852 0 1.176.325.325.851.325 1.176 0l2.822-2.821c.975-.975 2.554-.975 3.529 0 .974.974.974 2.553 0 3.527l-5.175 5.175c-.975.975-2.554.975-3.528 0-.325-.324-.852-.324-1.176 0-.325.325-.325.852 0 1.177 1.624 1.623 4.256 1.623 5.88 0l5.175-5.175z" transform="translate(-7 -212) translate(7 212) translate(2 2)"/>
                </g>
            </g>
        </g>
    </g>
</svg>
