<svg xmlns="http://www.w3.org/2000/svg" width="32" height="32" viewBox="0 0 32 32">
    <g fill="none" fill-rule="evenodd">
        <g fill="#1DA1F2">
            <path d="M10.805 27.484c10.567 0 16.346-9.036 16.346-16.871 0-.257 0-.513-.017-.767 1.124-.84 2.095-1.879 2.866-3.07-1.048.48-2.16.795-3.3.934 1.2-.741 2.097-1.907 2.526-3.28-1.128.69-2.361 1.177-3.648 1.44-1.78-1.955-4.61-2.433-6.902-1.168-2.291 1.266-3.475 3.962-2.888 6.575-4.619-.239-8.922-2.49-11.84-6.195-1.524 2.71-.745 6.175 1.78 7.915-.915-.028-1.81-.282-2.608-.742v.075c0 2.823 1.928 5.254 4.609 5.813-.846.238-1.733.273-2.594.102.752 2.415 2.91 4.07 5.367 4.118-2.034 1.65-4.547 2.546-7.134 2.543-.458-.001-.914-.03-1.368-.086 2.627 1.74 5.684 2.664 8.805 2.66"/>
        </g>
    </g>
</svg>
