<svg xmlns="http://www.w3.org/2000/svg" width="24" height="24" viewBox="0 0 24 24">
    <g fill="none" fill-rule="evenodd">
        <g fill="#FF4D63">
            <path d="M8.29 20.3c7.547 0 11.675-6.54 11.675-12.213 0-.186 0-.37-.012-.555.803-.608 1.496-1.36 2.047-2.222-.749.347-1.543.575-2.357.675.857-.536 1.498-1.38 1.804-2.374-.805.5-1.686.853-2.605 1.042-1.272-1.415-3.293-1.76-4.93-.844-1.637.916-2.483 2.867-2.063 4.759-3.3-.173-6.373-1.803-8.457-4.485-1.09 1.962-.533 4.47 1.27 5.73-.653-.02-1.291-.204-1.862-.537v.054c0 2.044 1.377 3.804 3.292 4.208-.604.172-1.238.198-1.853.074.538 1.748 2.078 2.946 3.834 2.98-1.453 1.195-3.248 1.844-5.096 1.842-.327 0-.653-.022-.977-.062 1.877 1.26 4.06 1.928 6.29 1.925"/>
        </g>
    </g>
</svg>
