<svg xmlns="http://www.w3.org/2000/svg" width="24" height="24" viewBox="0 0 24 24">
    <defs>
        <linearGradient id="efun5tdrna" x1="50%" x2="50%" y1="0%" y2="100%">
            <stop offset="0%" stop-color="#20B038"/>
            <stop offset="100%" stop-color="#60D66A"/>
        </linearGradient>
        <linearGradient id="hbmosw3g2b" x1="50%" x2="50%" y1="0%" y2="100%">
            <stop offset="0%" stop-color="#60D66A"/>
            <stop offset="100%" stop-color="#20B038"/>
        </linearGradient>
    </defs>
    <g fill="none" fill-rule="evenodd">
        <g fill-rule="nonzero">
            <g>
                <g>
                    <path fill="url(#efun5tdrna)" d="M.118 11.002c0-1.905.497-3.764 1.443-5.402L.028 0l5.73 1.503C7.336.642 9.114.188 10.923.187h.004c5.958 0 10.807 4.848 10.81 10.806 0 2.887-1.123 5.602-3.164 7.645-2.04 2.042-4.754 3.167-7.646 3.169C4.97 21.807.121 16.959.118 11.002zm3.413-5.12l-.214.34c-.9 1.43-1.374 3.082-1.374 4.779.002 4.952 4.032 8.98 8.988 8.98 2.4 0 4.655-.936 6.351-2.633 1.697-1.698 2.63-3.954 2.63-6.354-.003-4.952-4.033-8.982-8.985-8.982h-.003c-1.612.001-3.194.434-4.573 1.253l-.328.194-3.4-.891.908 3.314z" transform="translate(-7 -104) translate(7 104) translate(1 1) matrix(1 0 0 -1 0 21.807)"/>
                    <path fill="url(#hbmosw3g2b)" d="M8.226 6.288c-.202-.45-.415-.459-.608-.466-.157-.007-.338-.007-.517-.007-.18 0-.473.068-.72.338-.248.27-.946.924-.946 2.253 0 1.328.968 2.612 1.103 2.793.135.18 1.868 2.994 4.613 4.076 2.282.9 2.746.721 3.241.676.496-.045 1.598-.653 1.823-1.284.225-.63.225-1.17.158-1.284-.068-.112-.248-.18-.518-.315s-1.598-.789-1.845-.879c-.248-.09-.428-.135-.608.136-.18.27-.697.878-.855 1.058-.158.18-.315.203-.585.068-.27-.135-1.14-.42-2.172-1.34-.803-.716-1.345-1.6-1.503-1.87-.157-.27-.016-.417.119-.552.121-.12.27-.315.405-.473.135-.157.18-.27.27-.45.09-.18.045-.338-.023-.473-.067-.135-.592-1.47-.832-2.005" transform="translate(-7 -104) translate(7 104) translate(1 1)"/>
                </g>
            </g>
        </g>
    </g>
</svg>
