<svg xmlns="http://www.w3.org/2000/svg" width="132" height="32" viewBox="0 0 132 32">
    <g fill="none" fill-rule="evenodd">
        <g>
            <g>
                <path fill="#FF4D63" d="M14 0l14 8v7.995l-7.003 4.001v-7.994L14 8.004l-6.996 3.998v7.996l6.852 3.916v-7.921L27.71 23.99v8.002l-13.711-7.915V32L0 24V8l14-8z" transform="translate(-111 -961) translate(111 961)"/>
                <path fill="gray" d="M125.326 9.53c2.396 0 3.922.784 5.3 1.929.17.148.339.381.339.678 0 .445-.403.827-.848.827-.233 0-.424-.107-.551-.191-1.145-1.018-2.438-1.696-4.26-1.696-3.286 0-5.745 2.67-5.745 6.083v.043c0 3.434 2.48 6.125 5.745 6.125 1.844 0 3.136-.635 4.408-1.801.128-.127.318-.233.53-.233.424 0 .806.381.806.805 0 .254-.128.466-.276.594-1.463 1.335-3.074 2.183-5.51 2.183-4.283 0-7.44-3.37-7.44-7.63v-.043c0-4.197 3.136-7.673 7.502-7.673zm-59.594.135c.446 0 .827.382.827.848v7.758c0 4.324-2.48 6.57-6.19 6.57-3.666 0-6.167-2.246-6.167-6.443v-7.885c0-.466.38-.848.826-.848.466 0 .848.382.848.848v7.78c0 3.2 1.717 5.001 4.536 5.001 2.734 0 4.473-1.653 4.473-4.896v-7.885c0-.466.381-.848.847-.848zm-21.507-.557c4.63 0 7.738 3.629 7.738 7.823v.044c0 1.806-.586 3.515-1.621 4.876l1.603.925v1.93l-2.794-1.612c-1.305 1.084-3.003 1.748-4.969 1.748-4.63 0-7.737-3.63-7.737-7.824v-.043c0-4.195 3.152-7.867 7.78-7.867zm51.441.536c.445 0 .806.382.806.827v13.396c0 .446-.319.785-.763.785h-.086c-.36 0-.614-.213-.868-.51l-9.2-11.763v12.215h-1.632V10.513c0-.445.382-.826.827-.826h.233c.381 0 .615.19.848.487l9.008 11.489V10.471c0-.445.36-.827.827-.827zm18.703 0c.466 0 .848.382.848.848v14.102h-1.675V10.492c0-.466.382-.848.827-.848zm-3.789.106c.423 0 .784.36.784.785 0 .423-.36.762-.784.762H105.8v13.297h-1.696V11.297h-4.78c-.424 0-.785-.339-.785-.762 0-.425.361-.785.785-.785zm-35.856-.106c.487 0 .805.276.975.7l6.146 14.25h-1.821L74.66 11.828l-3.39 8.093h5.487l.704 1.675h-6.893l-1.256 2.998h-1.778l6.13-14.25c.19-.424.487-.7.974-.7zm-30.499 1.135c-2.207 0-3.617 1-4.412 1.839-1.094 1.155-1.696 2.702-1.696 4.357v.043c0 1.655.595 3.195 1.674 4.335 1.126 1.19 2.644 1.817 4.391 1.817 1.466 0 2.58-.442 3.396-.984l-3.375-1.948v-1.93l4.672 2.696c.913-1.112 1.416-2.524 1.416-4.03v-.043c0-1.655-.595-3.195-1.675-4.335-1.125-1.188-2.644-1.817-4.39-1.817z" transform="translate(-111 -961) translate(111 961)"/>
            </g>
        </g>
    </g>
</svg>
