<svg xmlns="http://www.w3.org/2000/svg" width="132" height="32" viewBox="0 0 132 32">
    <g fill="none" fill-rule="evenodd">
        <g fill="#FFF">
            <g>
                <path d="M14 0l14 7.909v7.903l-7.003 3.956v-7.903L14 7.913l-6.996 3.952v7.905l6.852 3.871v-7.83l13.854 7.906v7.911l-13.711-7.825v7.832L0 23.727V7.909L14 0zM125.326 9.421c2.396 0 3.922.775 5.3 1.907.17.147.339.377.339.67 0 .44-.403.818-.848.818-.233 0-.424-.105-.551-.189-1.145-1.006-2.438-1.676-4.26-1.676-3.286 0-5.745 2.64-5.745 6.013v.042c0 3.395 2.48 6.056 5.745 6.056 1.844 0 3.136-.628 4.408-1.78.128-.127.318-.231.53-.231.424 0 .806.377.806.796 0 .251-.128.46-.276.587-1.463 1.32-3.074 2.158-5.51 2.158-4.283 0-7.44-3.332-7.44-7.544v-.042c0-4.149 3.136-7.585 7.502-7.585zm-59.594.134c.446 0 .827.377.827.838v7.67c0 4.275-2.48 6.495-6.19 6.495-3.666 0-6.167-2.22-6.167-6.37v-7.795c0-.461.38-.838.826-.838.466 0 .848.377.848.838v7.69c0 3.165 1.717 4.946 4.536 4.946 2.734 0 4.473-1.635 4.473-4.84v-7.796c0-.461.381-.838.847-.838zm-21.507-.551c4.63 0 7.738 3.587 7.738 7.734v.043c0 1.786-.586 3.475-1.621 4.82l1.603.916v1.908L49.15 22.83c-1.305 1.071-3.003 1.727-4.969 1.727-4.63 0-7.737-3.587-7.737-7.734v-.043c0-4.147 3.152-7.777 7.78-7.777zm51.441.53c.445 0 .806.377.806.817v13.244c0 .44-.319.775-.763.775h-.086c-.36 0-.614-.21-.868-.503l-9.2-11.63v12.077h-1.632V10.393c0-.44.382-.817.827-.817h.233c.381 0 .615.189.848.482l9.008 11.358V10.35c0-.44.36-.817.827-.817zm18.703 0c.466 0 .848.377.848.839v13.94h-1.675v-13.94c0-.462.382-.84.827-.84zm-3.789.105c.423 0 .784.356.784.775 0 .42-.36.754-.784.754H105.8v13.145h-1.696V11.168h-4.78c-.424 0-.785-.335-.785-.754s.361-.775.785-.775zm-35.856-.105c.487 0 .805.273.975.692l6.146 14.088h-1.821L74.66 11.693l-3.39 8h5.487l.704 1.656h-6.893l-1.256 2.965h-1.778l6.13-14.088c.19-.42.487-.692.974-.692zm-30.499 1.122c-2.207 0-3.617.988-4.412 1.818-1.094 1.142-1.696 2.671-1.696 4.307v.043c0 1.636.595 3.158 1.674 4.286 1.126 1.175 2.644 1.796 4.391 1.796 1.466 0 2.58-.437 3.396-.973l-3.375-1.926v-1.909l4.672 2.667c.913-1.1 1.416-2.496 1.416-3.984v-.043c0-1.636-.595-3.158-1.675-4.285-1.125-1.176-2.644-1.797-4.39-1.797z" transform="translate(-112 -832) translate(112 832)"/>
            </g>
        </g>
    </g>
</svg>
