<svg xmlns="http://www.w3.org/2000/svg" width="132" height="48" viewBox="0 0 132 48">
    <g fill="none" fill-rule="evenodd">
        <g fill="#FFF">
            <g>
                <path d="M20.5 0L41 12v11.991l-10.249 6 10.249 6v12.005L20.502 35.998V23.99l10.243 5.996V18.003L20.5 12.006l-10.246 5.997v11.995L20.5 35.994V48L0 36V12L20.5 0zM104.35 40.696c.635 0 1.523.15 2.214.673l-.28.56c-.812-.542-1.523-.58-1.84-.58-1.99 0-2.86 1.44-2.86 2.738 0 1.393 1 2.7 2.794 2.7.58 0 1.168-.13 1.682-.504V44.76h-1.888v-.607h2.542v2.42c-.804.719-1.738.87-2.382.87-2.037 0-3.486-1.505-3.486-3.365 0-1.887 1.486-3.382 3.504-3.382zm-39.995 0c.943 0 1.58.28 2.14.7l-.28.542c-.458-.336-1.122-.588-1.898-.588-1.718 0-2.756 1.252-2.756 2.72 0 1.475 1.047 2.718 2.766 2.718.766 0 1.43-.243 1.888-.58l.28.552c-.56.41-1.197.682-2.13.682-2.234 0-3.542-1.55-3.542-3.372 0-1.823 1.308-3.374 3.532-3.374zm20.058 0c1.87 0 3.391 1.514 3.391 3.373 0 1.86-1.522 3.373-3.39 3.373-1.87 0-3.393-1.514-3.393-3.373 0-1.86 1.523-3.373 3.392-3.373zm12.13 0c1.87 0 3.392 1.514 3.392 3.373 0 1.86-1.523 3.373-3.392 3.373s-3.392-1.514-3.392-3.373c0-1.86 1.523-3.373 3.392-3.373zm-28.07.103v3.13h3.362v-3.13h.72v6.54h-.72v-2.812h-3.363v2.812h-.72V40.8h.72zm39.62 0l2.018 3.214h.01l2.018-3.214h.803v.055l-2.467 3.784v2.701h-.72v-2.7l-2.466-3.785V40.8h.803zm-18.153 0v5.942h3.064v.598H89.22v-6.54h.72zm-14.913 0l3.86 5.223v-5.223h.718v6.54h-.542l-3.868-5.242v5.242h-.72v-6.54h.552zm-15.004 0v.598h-3.345v2.438h2.924v.608h-2.924v2.298h3.345v.598h-4.065v-6.54h4.065zm-5.183 0v.598h-2.289v5.942h-.719v-5.942h-2.28v-.598h5.288zm41.703.55c-1.448 0-2.653 1.187-2.653 2.72 0 1.533 1.205 2.719 2.653 2.719 1.458 0 2.654-1.186 2.654-2.719S98 41.35 96.543 41.35zm-12.13 0c-1.449 0-2.653 1.187-2.653 2.72 0 1.533 1.204 2.719 2.653 2.719 1.458 0 2.654-1.186 2.654-2.719s-1.196-2.72-2.654-2.72zm1.204-11.86c1.112 0 1.813.608 2.008 1.467l-.653.197c-.16-.654-.626-1.01-1.364-1.01-.72 0-1.337.403-1.337 1.094 0 .328.122.748.963 1.047l1.056.373c.952.3 1.58.98 1.58 1.73 0 1.083-.907 1.849-2.262 1.849-1.271 0-2.122-.7-2.365-1.523l.683-.177c.158.532.775 1.046 1.673 1.046.952 0 1.532-.504 1.532-1.149 0-.598-.514-.972-1.065-1.149l-1.056-.355c-1.243-.403-1.477-1.113-1.477-1.673 0-1.103.981-1.766 2.084-1.766zm-20.562 0c1.111 0 1.813.608 2.009 1.467l-.654.197c-.16-.654-.627-1.01-1.364-1.01-.72 0-1.337.403-1.337 1.094 0 .328.122.748.963 1.047l1.055.373c.953.3 1.58.98 1.58 1.73 0 1.083-.907 1.849-2.261 1.849-1.272 0-2.122-.7-2.365-1.523l.682-.177c.16.532.776 1.046 1.673 1.046.953 0 1.532-.504 1.532-1.149 0-.598-.513-.972-1.064-1.149l-1.056-.355c-1.243-.403-1.477-1.113-1.477-1.673 0-1.103.981-1.766 2.084-1.766zm34.13.001c1.075 0 1.645.644 1.645 1.373 0 .692-.71 1.393-1.43 1.701.477.541.944 1.066 1.411 1.607l.935-1.28h.729v.056l-1.253 1.682.543.617c.243.242.438.364.766.364.261 0 .56-.085.719-.224.084.159.16.337.243.495-.224.215-.524.355-.981.355-.58 0-.907-.243-1.271-.607l-.392-.449c-.458.655-1.261 1.056-2.038 1.056-1.233 0-2.242-.636-2.242-1.775 0-1.047 1.01-1.692 1.888-2.056-.468-.383-.86-.953-.86-1.485 0-1.103.888-1.43 1.588-1.43zm-8.198 0c1.111 0 1.813.607 2.008 1.466l-.653.197c-.16-.654-.627-1.01-1.364-1.01-.721 0-1.337.403-1.337 1.094 0 .328.122.748.963 1.047l1.055.373c.953.3 1.579.98 1.579 1.73 0 1.083-.906 1.849-2.26 1.849-1.272 0-2.122-.7-2.365-1.523l.682-.177c.159.532.776 1.046 1.672 1.046.954 0 1.533-.504 1.533-1.149 0-.598-.514-.972-1.065-1.149l-1.056-.355c-1.243-.403-1.476-1.113-1.476-1.673 0-1.103.98-1.766 2.084-1.766zm-33.888.102v4.15c0 1.232.84 1.84 1.83 1.84.982 0 1.823-.608 1.823-1.84v-4.15h.719v4.15c0 1.644-1.168 2.494-2.541 2.494-1.384 0-2.551-.85-2.551-2.495v-4.149h.72zm-4.464 0c1.178 0 2.094.598 2.094 1.654 0 .702-.402 1.327-1.3 1.552 1.075.13 1.626.831 1.626 1.653 0 1.028-.859 1.682-2.111 1.682h-2.588v-6.54h2.279zm16.752 0v6.542h-.72v-6.541h.72zm13.038 0v.598H79.08v2.439h2.924v.608H79.08v2.298h3.345v.598H78.36v-6.54h4.065zm-10.563 0l3.859 5.224v-5.224h.719v6.541h-.543l-3.867-5.241v5.241h-.72v-6.54h.552zm26.978 3.28c-.682.243-1.57.758-1.57 1.561 0 .738.7 1.214 1.541 1.214.627 0 1.272-.401 1.626-.934l-1.597-1.841zm-46.373.262h-1.392v2.401h1.869c.794 0 1.373-.42 1.373-1.102 0-.691-.58-1.3-1.85-1.3zm.168-2.944h-1.56v2.374h1.187c1.233 0 1.729-.627 1.729-1.27 0-.738-.636-1.104-1.356-1.104zm46.541-.149c-.42 0-.887.28-.887.906 0 .411.336.832.737 1.206.702-.337 1.113-.832 1.113-1.271 0-.41-.29-.84-.963-.84zM79.454 18.284c1.87 0 3.392 1.514 3.392 3.374 0 1.859-1.523 3.372-3.392 3.372s-3.391-1.513-3.391-3.372c0-1.86 1.522-3.374 3.391-3.374zm-7.694 0c1.869 0 3.392 1.514 3.392 3.374 0 1.859-1.523 3.372-3.392 3.372s-3.392-1.513-3.392-3.372c0-1.86 1.523-3.374 3.392-3.374zm-19.648 0c1.112 0 1.813.608 2.009 1.467l-.654.196c-.16-.654-.626-1.01-1.364-1.01-.72 0-1.336.403-1.336 1.095 0 .326.121.747.962 1.045l1.056.374c.953.3 1.58.981 1.58 1.729 0 1.084-.907 1.85-2.262 1.85-1.271 0-2.122-.7-2.365-1.522l.683-.179c.158.534.776 1.047 1.673 1.047.952 0 1.532-.505 1.532-1.149 0-.598-.514-.972-1.065-1.15l-1.056-.354c-1.243-.403-1.477-1.113-1.477-1.674 0-1.102.981-1.765 2.084-1.765zm6.64 0c.944 0 1.58.28 2.14.7l-.28.543c-.458-.337-1.121-.59-1.898-.59-1.718 0-2.756 1.253-2.756 2.72 0 1.476 1.047 2.719 2.767 2.719.766 0 1.43-.243 1.887-.58l.28.552c-.56.411-1.196.682-2.13.682-2.233 0-3.542-1.55-3.542-3.372 0-1.823 1.309-3.374 3.532-3.374zm34.532 1.887c1.346 0 2.448 1.103 2.448 2.43 0 1.345-1.102 2.43-2.448 2.43-1.346 0-2.438-1.075-2.438-2.43 0-1.336 1.092-2.43 2.438-2.43zm-8.302-1.784v5.942h3.064v.598h-3.785v-6.54h.721zm-22.113 0v3.13h3.364v-3.13h.719v6.54h-.72v-2.812H62.87v2.813h-.72v-6.54h.72zm35.672-.308c.87 0 1.355.495 1.355 1.14 0 0 0 .121-.047.251h-.635c.018-.074.028-.14.028-.187 0-.4-.299-.579-.701-.579-.373 0-.766.243-.766 1.094v.476h1.289v.56h-1.29v4.093h-.7v-4.092h-.775v-.56h.775v-.394c0-1.466.757-1.802 1.467-1.802zm-5.257 2.719c-.953 0-1.738.813-1.738 1.812 0 .99.785 1.794 1.738 1.794.963 0 1.747-.803 1.747-1.794 0-1-.784-1.812-1.747-1.812zm-21.524-1.86c-1.448 0-2.654 1.186-2.654 2.72 0 1.532 1.206 2.718 2.654 2.718 1.457 0 2.654-1.186 2.654-2.718 0-1.534-1.197-2.72-2.654-2.72zm7.694 0c-1.448 0-2.653 1.186-2.653 2.72 0 1.532 1.205 2.718 2.653 2.718 1.458 0 2.654-1.186 2.654-2.718 0-1.534-1.196-2.72-2.654-2.72zM53.382 6.02c2.15 0 3.901 1.741 3.901 3.88 0 .901-.324 1.721-.845 2.38l.835.482v2.082l-2.374-1.37c-.467.197-.98.306-1.517.306-2.16 0-3.912-1.741-3.912-3.88s1.752-3.88 3.912-3.88zm7.06.118v4.676c0 1.042.667 1.57 1.441 1.57s1.451-.528 1.451-1.57V6.138H65v4.676c0 1.934-1.43 2.966-3.117 2.966s-3.106-1.032-3.106-2.966V6.138h1.666zm36.195-.118c1.172 0 1.935.376 2.698.946l-.687 1.267c-.549-.419-1.151-.73-2-.73-1.527 0-2.45 1.053-2.45 2.397 0 1.343.923 2.397 2.45 2.397.849 0 1.451-.312 2-.731l.687 1.268c-.763.57-1.526.946-2.698.946-2.547 0-4.127-1.784-4.127-3.88s1.58-3.88 4.127-3.88zm-26.22.118l2.945 7.524h-1.74l-.538-1.408v.022h-2.957v-.022l-.516 1.408h-1.719l2.902-7.524h1.623zm20.675 0v7.524h-1.665V6.138h1.665zm-15.291 0l3.31 4.536V6.138h1.666v7.524h-1.268l-3.322-4.58v4.569h-1.665V6.138h1.279zm12.276 0v1.397h-2.139v6.127h-1.644V7.535h-2.118V6.138h5.9zM53.382 7.546c-1.247 0-2.268.978-2.268 2.354 0 1.375 1.021 2.353 2.268 2.353.097 0 .192-.016.286-.028V10.68l1.393.804c.354-.408.578-.95.578-1.584 0-1.376-1.02-2.354-2.257-2.354zm16.23.355l-1.033 3.01h2.031l-.998-3.01z" transform="translate(-327 -824) translate(327 824)"/>
            </g>
        </g>
    </g>
</svg>
