<svg xmlns="http://www.w3.org/2000/svg" width="60" height="64" viewBox="0 0 60 64">
    <g fill="none" fill-rule="evenodd">
        <g>
            <g>
                <path fill="#FF4D63" d="M29.5 0L48 10.75v10.743l-9.25 5.374L48 32.241v10.756l-18.498-10.75V21.494l9.243 5.371V16.128L29.5 10.755l-9.246 5.373v10.744l9.246 5.373V43L11 32.25v-21.5L29.5 0z" transform="translate(-542 -945) translate(542 945)"/>
                <path fill="gray" d="M55.43 49.268c1.495 0 2.447.497 3.305 1.223.107.094.212.242.212.43 0 .282-.25.524-.529.524-.145 0-.264-.067-.343-.12-.714-.646-1.52-1.076-2.657-1.076-2.05 0-3.583 1.693-3.583 3.858v.027c0 2.178 1.547 3.885 3.583 3.885 1.15 0 1.956-.404 2.75-1.143.079-.08.198-.148.33-.148.264 0 .502.242.502.511 0 .161-.08.296-.172.376-.912.847-1.917 1.385-3.437 1.385-2.67 0-4.64-2.137-4.64-4.84v-.026c0-2.662 1.957-4.866 4.68-4.866zm-37.165.085c.278 0 .516.242.516.538v4.92c0 2.743-1.547 4.167-3.86 4.167-2.287 0-3.847-1.424-3.847-4.086v-5c0-.297.238-.539.515-.539.291 0 .529.242.529.538v4.934c0 2.03 1.07 3.172 2.829 3.172 1.705 0 2.79-1.048 2.79-3.105v-5c0-.297.237-.539.528-.539zM4.852 49c2.887 0 4.826 2.302 4.826 4.961v.028c0 1.146-.366 2.23-1.011 3.093l1 .587v1.224L7.923 57.87c-.814.687-1.873 1.108-3.099 1.108C1.938 58.978 0 56.677 0 54.017v-.028C0 51.33 1.965 49 4.852 49zm32.081.34c.278 0 .503.242.503.525v8.495c0 .283-.199.498-.476.498h-.053c-.225 0-.384-.135-.542-.323l-5.738-7.46v7.746H29.61v-8.93c0-.282.238-.524.515-.524h.146c.237 0 .383.121.528.31l5.618 7.285v-7.097c0-.283.225-.525.516-.525zm11.664 0c.291 0 .529.242.529.538v8.943h-1.044v-8.943c0-.296.238-.538.515-.538zm-2.363.068c.264 0 .49.228.49.497s-.226.484-.49.484h-2.981v8.432h-1.058V50.39h-2.981c-.265 0-.49-.215-.49-.484 0-.27.225-.497.49-.497zm-22.362-.068c.304 0 .503.175.608.444l3.833 9.037h-1.135l-3.345-8.096-2.115 5.133h3.422l.44 1.062h-4.3l-.783 1.901H19.39l3.823-9.037c.119-.269.303-.444.607-.444zm-19.02.72c-1.376 0-2.256.634-2.752 1.166-.682.732-1.057 1.714-1.057 2.763v.028c0 1.05.37 2.026 1.044 2.75.702.753 1.649 1.151 2.738 1.151.915 0 1.609-.28 2.118-.624L4.839 56.06v-1.225l2.913 1.71c.57-.705.883-1.6.883-2.555v-.028c0-1.05-.371-2.025-1.045-2.749-.701-.753-1.648-1.152-2.738-1.152z" transform="translate(-542 -945) translate(542 945)"/>
            </g>
        </g>
    </g>
</svg>
